<?xml version="1.0" encoding="UTF-8"?>
<!DOCTYPE svg PUBLIC "-//W3C//DTD SVG 1.1//EN" "http://www.w3.org/Graphics/SVG/1.1/DTD/svg11.dtd">
<svg xmlns="http://www.w3.org/2000/svg" version="1.1" width="512px" height="512px" style="shape-rendering:geometricPrecision; text-rendering:geometricPrecision; image-rendering:optimizeQuality; fill-rule:evenodd; clip-rule:evenodd" xmlns:xlink="http://www.w3.org/1999/xlink">
<g><path style="opacity:1" fill="#000000" d="M 123.5,23.5 C 147.169,23.3334 170.836,23.5 194.5,24C 234.907,65.9545 275.24,65.9545 315.5,24C 339.5,23.3333 363.5,23.3333 387.5,24C 388.667,25.1667 389.833,26.3333 391,27.5C 391.333,73.5 391.667,119.5 392,165.5C 398.61,197.768 418.443,214.601 451.5,216C 452.667,217.167 453.833,218.333 455,219.5C 455.667,307.5 455.667,395.5 455,483.5C 453.833,484.667 452.667,485.833 451.5,487C 320.833,487.667 190.167,487.667 59.5,487C 58.3333,485.833 57.1667,484.667 56,483.5C 55.3333,395.5 55.3333,307.5 56,219.5C 57.1667,218.333 58.3333,217.167 59.5,216C 92.5396,214.621 112.373,197.788 119,165.5C 119.333,119.5 119.667,73.5 120,27.5C 121.376,26.2949 122.542,24.9616 123.5,23.5 Z M 135.5,39.5 C 140.833,39.5 146.167,39.5 151.5,39.5C 151.667,81.8346 151.5,124.168 151,166.5C 146.198,202.632 127.032,227.799 93.5,242C 86.4063,244.719 79.073,246.219 71.5,246.5C 71.1725,241.456 71.5059,236.456 72.5,231.5C 107.46,225.04 128.293,204.374 135,169.5C 135.5,126.168 135.667,82.8346 135.5,39.5 Z M 167.5,39.5 C 172.833,39.5 178.167,39.5 183.5,39.5C 183.333,63.8356 183.5,88.1689 184,112.5C 186.795,140.92 198.295,165.087 218.5,185C 251.326,206.504 280.159,202.004 305,171.5C 317.468,153.435 324.801,133.435 327,111.5C 327.5,87.5023 327.667,63.5023 327.5,39.5C 332.833,39.5 338.167,39.5 343.5,39.5C 343.333,83.5013 343.5,127.501 344,171.5C 353.745,225.078 385.579,255.745 439.5,263.5C 439.5,332.833 439.5,402.167 439.5,471.5C 316.833,471.5 194.167,471.5 71.5,471.5C 71.5,402.167 71.5,332.833 71.5,263.5C 125.421,255.745 157.255,225.078 167,171.5C 167.5,127.501 167.667,83.5013 167.5,39.5 Z M 359.5,39.5 C 364.833,39.5 370.167,39.5 375.5,39.5C 375.333,82.8346 375.5,126.168 376,169.5C 382.707,204.374 403.54,225.04 438.5,231.5C 439.494,236.456 439.827,241.456 439.5,246.5C 403.713,241.853 378.88,222.853 365,189.5C 362.311,182.057 360.645,174.391 360,166.5C 359.5,124.168 359.333,81.8346 359.5,39.5 Z M 199.5,50.5 C 230.353,74.7368 263.353,77.9034 298.5,60C 302.951,57.2171 307.117,54.0504 311,50.5C 311.667,68.8333 311.667,87.1667 311,105.5C 309.726,128.359 302.059,148.692 288,166.5C 261.581,189.558 237.914,186.891 217,158.5C 208.913,145.577 203.58,131.577 201,116.5C 199.606,94.5296 199.106,72.5296 199.5,50.5 Z"/></g>
</svg>
